<svg width="41" height="41" viewBox="0 0 41 41" fill="none" xmlns="http://www.w3.org/2000/svg">
<path fill-rule="evenodd" clip-rule="evenodd" d="M20.5591 5.64761C19.8745 6.46479 19.8965 9.66721 20.5591 11.942C21.2438 14.239 23.7394 15.542 26.5001 15.0782C28.532 14.7469 34.2744 11.8316 34.186 11.169C33.9652 9.6893 31.9112 9.8439 28.3995 11.6108C23.7395 13.9298 23.5627 13.7972 22.5247 7.19361C22.1272 4.67584 20.8462 5.31633 20.5591 5.64761ZM15.2806 9.97641C15.7224 15.8291 14.3972 17.6843 9.45004 18.104C7.41815 18.2806 6.95429 18.7224 8.169 19.3408C10.3997 20.4892 15.2585 19.5174 16.6941 17.6401C17.7542 16.2487 18.6155 8.80586 17.8867 7.23777C17.7321 6.90649 14.7727 3.48321 15.2806 9.97641ZM30.1664 17.088C24.5125 20.1579 22.9002 23.0953 24.0707 28.2192C25.0867 32.6143 26.3898 32.5259 26.5665 28.0425C26.7652 23.2058 27.0081 22.742 31.0277 19.8929C33.5013 18.1481 34.0314 17.5076 33.413 17.0218C32.8609 16.5359 31.1161 16.5579 30.1664 17.088ZM19.6757 27.5345C19.1015 24.7517 16.7162 23.4266 13.7788 24.2438C11.8131 24.7738 9.53836 26.1873 9.53836 26.872C9.53836 27.6891 11.4156 27.8658 12.8512 27.2033C13.315 26.9824 14.3309 26.6069 15.126 26.3198C15.4131 26.2094 15.7223 26.2536 15.9873 26.4082C16.2524 26.5628 16.4291 26.8278 16.4733 27.137C16.6499 28.2192 16.8929 29.8536 17.0033 31.245C17.2683 34.602 17.6438 35.2204 19.4106 35.2204C20.537 35.1541 20.6475 32.2167 19.6757 27.5345Z" fill="#9500DB"/>
</svg>
