<svg width="40" height="40" viewBox="0 0 40 40" fill="none" xmlns="http://www.w3.org/2000/svg">
<path d="M35.5574 17.8844C34.4432 18.4607 34.2895 18.4223 33.0217 16.924C32.3878 16.1748 31.389 15.2528 30.7935 14.8686L29.737 14.177L30.4284 13.5239C31.8691 12.1985 30.5821 11.3533 28.738 12.3906L27.7008 12.9668C26.4329 12.5058 24.2238 11.6798 22.86 11.4493C21.6306 11.238 21.7074 11.2572 21.7074 11.238C21.7074 11.2572 21.7074 11.3148 21.7842 9.85493C21.8226 9.24023 21.3616 8.72158 20.7662 8.68316C19.5175 8.58711 18.9605 8.91367 19.2102 10.1815L19.383 11.0075C19.383 11.0075 15.5028 11.4301 14.5807 11.5454C12.775 11.7759 12.6406 11.7374 12.6406 11.0075C12.6406 9.62442 9.02922 9.52837 10.0857 11.5454C10.3355 12.0256 10.4891 12.4482 10.4507 12.5058C10.4123 12.5442 9.75918 12.89 9.02922 13.255C8.29926 13.62 7.10827 14.446 6.41673 15.0607L5.12976 16.194L3.84269 15.5793C1.88334 14.6573 1.36474 15.368 2.65177 17.2505C3.3241 18.2494 3.32408 18.2494 2.82464 18.9794C1.55682 20.7851 2.36356 22.6099 5.9365 26.0484C9.62469 29.6021 17.7503 32.5028 19.4023 30.8508C19.8441 30.4089 18.6723 28.9298 17.8848 28.9298C12.3525 28.9298 4.4766 23.7049 5.2834 20.5737C6.26307 16.7703 14.1389 11.8143 22.7639 13.2934C27.6623 14.1194 30.6206 16.4822 32.8873 21.3421C33.2907 22.2065 33.6556 22.9941 33.7132 23.071C34.1743 23.8778 28.0081 26.8936 22.8984 28.3727C21.1696 28.8722 20.9582 29.0067 20.9582 29.5829C20.9582 31.6575 25.5109 31.2157 28.738 28.8338C32.5031 26.0676 37.1325 24.4156 35.7687 21.3998C35.4805 20.7466 35.3652 20.228 35.5189 20.1704C36.4794 19.8246 37.9201 18.7873 38.0161 18.3839C38.2082 17.481 36.8828 17.1737 35.5574 17.8844Z" fill="#9500DB"/>
<path d="M26.3944 20.42C26.3368 18.2686 25.3955 16.29 24.2238 15.6561C23.8204 15.4448 23.2441 15.6945 23.4554 16.3092C24.6272 19.863 20.7085 20.228 19.5367 19.4596C16.7514 17.5963 18.0768 15.6177 19.8248 15.0606C20.7853 14.7533 20.4203 14.1002 18.096 14.1386C14.2926 14.2154 11.7761 17.4426 11.7953 20.2664C11.8145 23.9738 14.7151 27.8156 19.7096 27.5467C24.2622 27.3354 26.4904 24.6845 26.3944 20.42Z" fill="#9500DB"/>
</svg>
