<svg width="273" height="56" viewBox="0 0 273 56" fill="none" xmlns="http://www.w3.org/2000/svg">
<path d="M32.92 35.44L33.26 35.34C33.58 35.2866 33.7867 35.1666 33.88 34.98C33.9867 34.78 34.04 34.4466 34.04 33.98V28.9C34.04 28.7533 34.0133 28.6533 33.96 28.6C33.9067 28.5333 33.8133 28.5 33.68 28.5H32.9L32.72 28.02C33.0667 27.7 33.4667 27.44 33.92 27.24C34.3733 27.04 34.7733 26.94 35.12 26.94C35.2933 26.94 35.4333 26.9933 35.54 27.1C35.6467 27.2066 35.7 27.34 35.7 27.5V29.48H35.8C36.0133 28.6666 36.3333 28.0133 36.76 27.52C37.2 27.0266 37.6733 26.78 38.18 26.78C38.6867 26.78 39.1 26.9466 39.42 27.28C39.7533 27.6 39.92 28.0466 39.92 28.62C39.92 29.0733 39.7533 29.4533 39.42 29.76C39.0867 30.0666 38.6667 30.22 38.16 30.22C37.92 30.22 37.8 30.16 37.8 30.04C37.8 30 37.8467 29.9066 37.94 29.76C38.0333 29.6133 38.1133 29.4666 38.18 29.32C38.2467 29.1733 38.28 29 38.28 28.8C38.28 28.5733 38.2267 28.4 38.12 28.28C38.0133 28.1466 37.8733 28.08 37.7 28.08C37.42 28.08 37.1267 28.2533 36.82 28.6C36.5133 28.9466 36.2467 29.5 36.02 30.26C35.8067 31.02 35.7 31.9866 35.7 33.16C35.7 33.7066 35.74 34.1533 35.82 34.5C35.9133 34.8333 36.0667 35.1466 36.28 35.44L36.5 35.72L36.28 36H33.1L32.92 35.44ZM45.1097 36.26C44.2697 36.26 43.5364 36.0666 42.9097 35.68C42.283 35.2933 41.7964 34.7533 41.4497 34.06C41.103 33.3533 40.9297 32.54 40.9297 31.62C40.9297 30.66 41.123 29.8133 41.5097 29.08C41.8964 28.3466 42.443 27.78 43.1497 27.38C43.8697 26.98 44.6964 26.78 45.6297 26.78C46.6164 26.78 47.3764 27.04 47.9097 27.56C48.4564 28.08 48.7297 28.7066 48.7297 29.44C48.7297 29.9466 48.5897 30.4333 48.3097 30.9C48.043 31.3666 47.643 31.7466 47.1097 32.04C46.5897 32.3333 45.9764 32.48 45.2697 32.48C44.8697 32.48 44.4364 32.4133 43.9697 32.28C43.503 32.1333 43.2697 31.92 43.2697 31.64C43.2697 31.5333 43.2964 31.44 43.3497 31.36C43.403 31.28 43.463 31.24 43.5297 31.24C43.5697 31.24 43.6897 31.28 43.8897 31.36C44.103 31.4266 44.3764 31.46 44.7097 31.46C45.443 31.46 46.0097 31.26 46.4097 30.86C46.8097 30.46 47.0097 29.98 47.0097 29.42C47.0097 28.94 46.8497 28.5266 46.5297 28.18C46.223 27.8333 45.8097 27.66 45.2897 27.66C44.503 27.66 43.8897 28.0066 43.4497 28.7C43.023 29.38 42.8097 30.3533 42.8097 31.62C42.8097 32.7 43.0364 33.5466 43.4897 34.16C43.9564 34.76 44.623 35.06 45.4897 35.06C46.5564 35.06 47.4364 34.7133 48.1297 34.02C48.1697 33.98 48.223 33.96 48.2897 33.96C48.3964 33.96 48.503 34.0133 48.6097 34.12C48.7297 34.2266 48.7897 34.34 48.7897 34.46C48.7897 34.5 48.7764 34.54 48.7497 34.58C48.723 34.6066 48.7097 34.6266 48.7097 34.64C48.2564 35.1733 47.7164 35.58 47.0897 35.86C46.4764 36.1266 45.8164 36.26 45.1097 36.26ZM53.98 36.26C53.3933 36.26 52.8467 36.0933 52.34 35.76C51.8467 35.4133 51.4467 34.9133 51.14 34.26C50.8467 33.5933 50.7 32.7866 50.7 31.84C50.7 30.28 51.12 29.0466 51.96 28.14C52.8133 27.2333 53.96 26.78 55.4 26.78C55.88 26.78 56.5333 26.8533 57.36 27C57.9733 27.1066 58.5267 27.18 59.02 27.22L59.26 27.44L59 27.78C58.9067 27.94 58.84 28.0666 58.8 28.16C58.7733 28.24 58.76 28.3533 58.76 28.5V34.4C58.76 34.7733 58.9533 34.96 59.34 34.96C59.6333 34.96 59.9333 34.8533 60.24 34.64L60.58 35.1C60.26 35.46 59.92 35.7466 59.56 35.96C59.2 36.16 58.8733 36.26 58.58 36.26C58.0733 36.26 57.7067 36.1133 57.48 35.82C57.2533 35.5133 57.14 35.02 57.14 34.34C56.66 35.0466 56.16 35.5466 55.64 35.84C55.1333 36.12 54.58 36.26 53.98 36.26ZM54.68 34.84C55.6933 34.84 56.5133 34.2933 57.14 33.2V28.3C56.62 27.9533 56.0333 27.78 55.38 27.78C54.5133 27.78 53.8333 28.1066 53.34 28.76C52.86 29.4 52.62 30.3133 52.62 31.5C52.62 32.6466 52.8133 33.4933 53.2 34.04C53.6 34.5733 54.0933 34.84 54.68 34.84ZM64.198 36.26C63.6913 36.26 63.3246 36.1133 63.098 35.82C62.8846 35.5133 62.778 35.02 62.778 34.34V23.78C62.778 23.6333 62.7513 23.5333 62.698 23.48C62.6446 23.4133 62.5513 23.38 62.418 23.38H61.638L61.458 22.92C61.8046 22.6 62.2046 22.34 62.658 22.14C63.1113 21.9266 63.518 21.82 63.878 21.82C64.0513 21.82 64.1913 21.8733 64.298 21.98C64.4046 22.0866 64.458 22.2266 64.458 22.4L64.418 34.4C64.418 34.6 64.4646 34.7533 64.558 34.86C64.6513 34.9666 64.7846 35.02 64.958 35.02C65.2913 35.02 65.5913 34.8933 65.858 34.64L66.218 35.1C65.9113 35.4466 65.5713 35.7266 65.198 35.94C64.8246 36.1533 64.4913 36.26 64.198 36.26ZM75.8472 36.3C75.3539 36.3 75.0005 36.1466 74.7872 35.84C74.5739 35.5333 74.4672 35.04 74.4672 34.36V30.06C74.4672 29.4333 74.3405 28.96 74.0872 28.64C73.8472 28.32 73.4539 28.16 72.9072 28.16C72.3872 28.16 71.9272 28.3666 71.5272 28.78C71.1272 29.1933 70.8139 29.7733 70.5872 30.52C70.3739 31.2666 70.2672 32.1266 70.2672 33.1C70.2672 33.66 70.3072 34.1133 70.3872 34.46C70.4805 34.8066 70.6405 35.1333 70.8672 35.44L71.0872 35.72L70.8672 36H67.6872L67.4672 35.44L67.8672 35.34C68.1739 35.2866 68.3739 35.1666 68.4672 34.98C68.5739 34.78 68.6272 34.4466 68.6272 33.98V23.78C68.6272 23.6333 68.6005 23.5333 68.5472 23.48C68.4939 23.4133 68.4005 23.38 68.2672 23.38H67.4472L67.3072 22.92C67.6539 22.6 68.0472 22.34 68.4872 22.14C68.9405 21.9266 69.3339 21.82 69.6672 21.82C69.8405 21.82 69.9805 21.8733 70.0872 21.98C70.2072 22.0866 70.2672 22.2266 70.2672 22.4V29.48C70.5739 28.6933 71.0472 28.0466 71.6872 27.54C72.3272 27.0333 72.9939 26.78 73.6872 26.78C74.5672 26.78 75.1872 27.04 75.5472 27.56C75.9205 28.0666 76.1072 28.9 76.1072 30.06V34.44C76.1072 34.8533 76.2805 35.06 76.6272 35.06C76.9072 35.06 77.2072 34.94 77.5272 34.7L77.9072 35.14C77.5739 35.5 77.2205 35.7866 76.8472 36C76.4872 36.2 76.1539 36.3 75.8472 36.3ZM83.6697 36.26C82.3097 36.26 81.2297 35.8333 80.4297 34.98C79.6297 34.1133 79.2297 32.9533 79.2297 31.5C79.2297 30.0466 79.6297 28.9 80.4297 28.06C81.2297 27.2066 82.3097 26.78 83.6697 26.78C84.563 26.78 85.343 26.9733 86.0097 27.36C86.6764 27.7466 87.1897 28.2933 87.5497 29C87.9097 29.7066 88.0897 30.54 88.0897 31.5C88.0897 32.46 87.903 33.3 87.5297 34.02C87.1697 34.74 86.6564 35.2933 85.9897 35.68C85.323 36.0666 84.5497 36.26 83.6697 36.26ZM83.6297 35.28C84.3897 35.28 85.003 34.94 85.4697 34.26C85.9497 33.5666 86.1897 32.66 86.1897 31.54C86.1897 30.9666 86.1097 30.3933 85.9497 29.82C85.7897 29.2333 85.523 28.74 85.1497 28.34C84.7897 27.9266 84.3164 27.72 83.7297 27.72C82.943 27.72 82.3097 28.0666 81.8297 28.76C81.363 29.4533 81.1297 30.3733 81.1297 31.52C81.1297 32.6666 81.3497 33.58 81.7897 34.26C82.243 34.94 82.8564 35.28 83.6297 35.28ZM103.758 36.26C103.265 36.26 102.905 36.1133 102.678 35.82C102.465 35.5133 102.358 35.02 102.358 34.34V30.02C102.358 28.78 101.912 28.16 101.018 28.16C100.525 28.16 100.078 28.36 99.6784 28.76C99.2918 29.1466 98.9851 29.7 98.7584 30.42C98.5318 31.1266 98.4118 31.9466 98.3984 32.88V33.1C98.3984 33.7133 98.4451 34.2066 98.5384 34.58C98.6451 34.9533 98.8584 35.3333 99.1784 35.72L98.9584 36H96.7784V30.02C96.7784 29.4066 96.6584 28.9466 96.4184 28.64C96.1918 28.32 95.8518 28.16 95.3984 28.16C94.8784 28.16 94.4184 28.3666 94.0184 28.78C93.6318 29.1933 93.3318 29.7733 93.1184 30.52C92.9051 31.2666 92.7984 32.1266 92.7984 33.1C92.7984 33.66 92.8384 34.1133 92.9184 34.46C93.0118 34.8066 93.1651 35.1333 93.3784 35.44L93.5984 35.72L93.3784 36H90.1984L90.0184 35.44L90.3584 35.34C90.6784 35.2866 90.8851 35.1666 90.9784 34.98C91.0851 34.78 91.1384 34.4466 91.1384 33.98V28.9C91.1384 28.7533 91.1118 28.6533 91.0584 28.6C91.0051 28.5333 90.9118 28.5 90.7784 28.5H89.9984L89.8184 28.02C90.1651 27.7 90.5651 27.44 91.0184 27.24C91.4718 27.04 91.8718 26.94 92.2184 26.94C92.3918 26.94 92.5318 26.9933 92.6384 27.1C92.7451 27.2066 92.7984 27.34 92.7984 27.5V29.48C93.1051 28.68 93.5584 28.0333 94.1584 27.54C94.7718 27.0333 95.4118 26.78 96.0784 26.78C96.8251 26.78 97.3851 27 97.7584 27.44C98.1318 27.8666 98.3451 28.5466 98.3984 29.48C98.7051 28.6933 99.1651 28.0466 99.7784 27.54C100.392 27.0333 101.025 26.78 101.678 26.78C102.492 26.78 103.078 27.04 103.438 27.56C103.812 28.08 103.998 28.9 103.998 30.02V34.4C103.998 34.8133 104.172 35.02 104.518 35.02C104.825 35.02 105.125 34.8933 105.418 34.64L105.778 35.1C105.458 35.46 105.118 35.7466 104.758 35.96C104.398 36.16 104.065 36.26 103.758 36.26ZM111.31 36.26C110.47 36.26 109.736 36.0666 109.11 35.68C108.483 35.2933 107.996 34.7533 107.65 34.06C107.303 33.3533 107.13 32.54 107.13 31.62C107.13 30.66 107.323 29.8133 107.71 29.08C108.096 28.3466 108.643 27.78 109.35 27.38C110.07 26.98 110.896 26.78 111.83 26.78C112.816 26.78 113.576 27.04 114.11 27.56C114.656 28.08 114.93 28.7066 114.93 29.44C114.93 29.9466 114.79 30.4333 114.51 30.9C114.243 31.3666 113.843 31.7466 113.31 32.04C112.79 32.3333 112.176 32.48 111.47 32.48C111.07 32.48 110.636 32.4133 110.17 32.28C109.703 32.1333 109.47 31.92 109.47 31.64C109.47 31.5333 109.496 31.44 109.55 31.36C109.603 31.28 109.663 31.24 109.73 31.24C109.77 31.24 109.89 31.28 110.09 31.36C110.303 31.4266 110.576 31.46 110.91 31.46C111.643 31.46 112.21 31.26 112.61 30.86C113.01 30.46 113.21 29.98 113.21 29.42C113.21 28.94 113.05 28.5266 112.73 28.18C112.423 27.8333 112.01 27.66 111.49 27.66C110.703 27.66 110.09 28.0066 109.65 28.7C109.223 29.38 109.01 30.3533 109.01 31.62C109.01 32.7 109.236 33.5466 109.69 34.16C110.156 34.76 110.823 35.06 111.69 35.06C112.756 35.06 113.636 34.7133 114.33 34.02C114.37 33.98 114.423 33.96 114.49 33.96C114.596 33.96 114.703 34.0133 114.81 34.12C114.93 34.2266 114.99 34.34 114.99 34.46C114.99 34.5 114.976 34.54 114.95 34.58C114.923 34.6066 114.91 34.6266 114.91 34.64C114.456 35.1733 113.916 35.58 113.29 35.86C112.676 36.1266 112.016 36.26 111.31 36.26Z" fill="#1F0061"/>
<path d="M31.8861 53.9252L14.891 39.4467L15.1273 13.6651L31.1914 7.78242" stroke="#1F0061" stroke-width="5"/>
<path d="M32.8104 45.2019L22.6466 36.5432L22.7285 21.1946L32.2907 17.729" stroke="#1F0061" stroke-width="5"/>
</svg>
