<?xml version="1.0" encoding="UTF-8"?>
<svg version="1.1" xmlns="http://www.w3.org/2000/svg" width="866" height="650">
<path d="M0 0 C285.78 0 571.56 0 866 0 C866 214.5 866 429 866 650 C580.22 650 294.44 650 0 650 C0 435.5 0 221 0 0 Z " fill="#FEFEFE" transform="translate(0,0)"/>
<path d="M0 0 C1.31777435 0.00564972 1.31777435 0.00564972 2.66217041 0.01141357 C68.41894579 0.34163939 126.19726572 27.14992429 172.51513672 73.38671875 C178.11928543 79.09152382 183.11994452 85.11715024 187.86621094 91.546875 C189.09569396 93.21034931 190.34716212 94.85527552 191.6015625 96.5 C212.89503844 124.87722944 226.00290606 157.71403262 233.125 192.25 C233.30579102 193.11157715 233.48658203 193.9731543 233.67285156 194.86083984 C241.31390105 233.18001943 236.97049491 276.85486313 223.125 313.25 C222.82899902 314.0656543 222.53299805 314.88130859 222.22802734 315.72167969 C215.08067334 335.40682865 205.4818414 354.31508263 193.125 371.25 C192.71540039 371.81364258 192.30580078 372.37728516 191.88378906 372.95800781 C186.78297306 379.91438998 181.30553021 386.44304607 175.42578125 392.76171875 C173.42847565 394.92179288 171.51956662 397.12547945 169.625 399.375 C165.50788288 404.09672873 160.86042215 408.16186577 156.125 412.25 C155.21878906 413.0440625 154.31257813 413.838125 153.37890625 414.65625 C105.66491005 455.57245841 42.60917398 474.71749062 -19.80615234 469.94970703 C-59.72442344 465.88908207 -99.06394339 452.68415144 -131.875 429.25 C-132.90874756 428.51499268 -132.90874756 428.51499268 -133.96337891 427.76513672 C-141.88489484 422.08552481 -149.39083528 416.14807729 -156.5 409.47265625 C-158.57463814 407.53109523 -160.69671445 405.69755747 -162.875 403.875 C-181.77759042 387.35929472 -196.26630846 365.29125875 -207.875 343.25 C-208.27187012 342.50637207 -208.66874023 341.76274414 -209.07763672 340.99658203 C-224.28220796 312.13744938 -233.88853131 278.11670899 -234.078125 245.39453125 C-234.08513931 244.57871582 -234.09215363 243.76290039 -234.09938049 242.92236328 C-234.11679019 240.30235203 -234.12323335 237.68256698 -234.125 235.0625 C-234.12567474 234.16639008 -234.12634949 233.27028015 -234.12704468 232.34701538 C-234.11080039 218.77058592 -233.6364093 205.58558639 -230.875 192.25 C-230.70339355 191.39567383 -230.53178711 190.54134766 -230.35498047 189.66113281 C-221.11577278 144.79441738 -199.59143884 104.23825128 -167.875 71.25 C-167.35534668 70.70311523 -166.83569336 70.15623047 -166.30029297 69.59277344 C-158.93396342 61.86572741 -151.22500461 54.98358057 -142.67089844 48.59716797 C-140.86230429 47.24047649 -139.07527117 45.85864163 -137.2890625 44.47265625 C-128.01138902 37.36251223 -118.25367317 31.60292153 -107.875 26.25 C-107.07884277 25.83363281 -106.28268555 25.41726562 -105.46240234 24.98828125 C-87.35490015 15.60802508 -68.16145721 8.95277044 -48.3125 4.3125 C-47.1215271 4.03152466 -47.1215271 4.03152466 -45.90649414 3.74487305 C-30.75207524 0.46164586 -15.44416463 -0.10102389 0 0 Z " fill="#000000" transform="translate(431.875,89.75)"/>
<path d="M0 0 C11.06504442 -0.48936665 22.1274693 -0.86103116 33.2011795 -1.08805561 C38.34555909 -1.19710641 43.48247692 -1.34454518 48.62255859 -1.58422852 C84.61515949 -3.21916787 84.61515949 -3.21916787 93.10546875 4.43408203 C96.73616753 8.68897198 99.32014138 13.22128669 101.65283203 18.28677368 C103.87597537 22.76423393 106.94575585 26.56566305 110 30.5 C111.14992703 32.05948969 112.29624455 33.62165318 113.4375 35.1875 C117.23213443 40.33736101 121.11213589 45.42034813 125 50.5 C130.73446257 57.99355516 136.38252424 65.54342197 141.96582031 73.15014648 C145.8715286 78.47113814 149.79647778 83.77691717 153.75 89.0625 C154.50265137 90.07244019 154.50265137 90.07244019 155.27050781 91.1027832 C157.08755387 93.52730512 158.85451771 95.85451771 161 98 C162.11679902 96.78167379 163.23358916 95.56333943 164.3503418 94.3449707 C165.34254532 93.26264216 166.33490067 92.18045278 167.32739258 91.09838867 C169.76077641 88.44500341 172.19179103 85.78960237 174.6171875 83.12890625 C180.75636034 76.40194027 186.98296521 69.7624319 193.23486328 63.14013672 C197.42047726 58.69933884 201.53892624 54.20965096 205.59765625 49.65234375 C209.49729547 45.34688842 213.49307326 41.13172389 217.47485352 36.90234375 C221.74670335 32.35779967 225.93550597 27.75329012 230.0859375 23.09765625 C232.4123656 20.54808096 234.85280151 18.13468602 237.3125 15.71484375 C241.23473126 11.72905782 245.05982201 7.6125714 247.87890625 2.77734375 C249.80983195 0.45563547 250.80915687 0.03227253 253.83691406 -0.47973633 C257.34678958 -0.59137686 260.80405154 -0.52220763 264.3125 -0.375 C265.53001953 -0.34792969 266.74753906 -0.32085937 268.00195312 -0.29296875 C271.00310498 -0.22235341 274.00064712 -0.12376972 277 0 C273.62289504 4.66786126 270.2327662 8.99870731 266.0625 13 C263.18300366 15.81977346 260.3723593 18.62697433 257.75 21.6875 C252.65217133 27.63297699 247.23195714 33.28727456 241.87597656 38.99902344 C238.85130509 42.22523471 235.83114329 45.45564863 232.8125 48.6875 C232.22782959 49.31342041 231.64315918 49.93934082 231.04077148 50.58422852 C226.61060495 55.33265593 222.22140026 60.1168235 217.83984375 64.91015625 C214.00968729 69.08838515 210.13303643 73.2232387 206.26171875 77.36328125 C202.00894193 81.91319532 197.77492757 86.47974115 193.5612793 91.06591797 C190.80005359 94.0668286 188.01689462 97.04473003 185.2109375 100.00390625 C184.57285156 100.679375 183.93476563 101.35484375 183.27734375 102.05078125 C182.03642413 103.36304738 180.79179508 104.67181858 179.54296875 105.9765625 C178.97964844 106.57339844 178.41632813 107.17023438 177.8359375 107.78515625 C177.33626465 108.30988525 176.8365918 108.83461426 176.32177734 109.37524414 C174.88118376 111.14605136 173.9469921 112.92926268 173 115 C173.61705811 115.80497925 173.61705811 115.80497925 174.24658203 116.6262207 C181.57494378 126.19453777 188.87867304 135.77621194 196 145.5 C200.92560995 152.22499991 205.93352683 158.88049646 211 165.5 C217.39733817 173.85921942 223.67637227 182.29779743 229.90234375 190.78515625 C232.41280455 194.20699546 234.94681315 197.60985687 237.5 201 C240.62941777 205.15526742 243.72013249 209.33697802 246.796875 213.53125 C253.11001918 222.13500402 259.52390524 230.65341708 266.01098633 239.12670898 C271.25039429 245.98305273 276.39269836 252.90639472 281.484375 259.87304688 C282.020625 260.60587891 282.556875 261.33871094 283.109375 262.09375 C283.85477539 263.11275391 283.85477539 263.11275391 284.61523438 264.15234375 C285.82882328 265.77160342 287.10511619 267.34347459 288.390625 268.90625 C290 271 290 271 290 273 C278.94297809 273.25541842 267.88666309 273.45059263 256.82728672 273.56993389 C251.69116739 273.62722837 246.55707297 273.7048658 241.42211914 273.82983398 C236.46172809 273.9497916 231.5032778 274.01521293 226.54154778 274.04364967 C224.65352768 274.06389956 222.76560822 274.10344813 220.87841988 274.16303062 C206.111452 274.61050331 206.111452 274.61050331 200.90049744 270.63586426 C198.60116373 267.85936505 196.78751761 265.12358854 195 262 C193.89253616 260.48861834 192.76966325 258.98819717 191.62109375 257.5078125 C190.55739887 256.04869201 189.49625787 254.5877068 188.4375 253.125 C183.3718084 246.18684154 178.223679 239.31996069 173 232.5 C167.3490469 225.11753258 161.78975628 217.67639831 156.29785156 210.17504883 C151.85518931 204.12220533 147.31624377 198.14749758 142.75 192.1875 C136.66284327 184.24045986 130.73586195 176.20393716 125 168 C121.7760483 169.41539343 119.64333208 171.11414928 117.1875 173.625 C116.56230469 174.25664062 115.93710937 174.88828125 115.29296875 175.5390625 C113.38724129 177.5843918 111.54366645 179.65953073 109.7109375 181.76953125 C106.0561389 185.967894 102.26718896 190.02392754 98.4375 194.0625 C97.025797 195.55706061 95.61434347 197.05185688 94.203125 198.546875 C93.49994141 199.29130859 92.79675781 200.03574219 92.07226562 200.80273438 C83.87986021 209.48930939 75.75741999 218.23969698 67.69921875 227.05078125 C59.92822694 235.5415176 52.09829744 243.97667227 44.23803711 252.38476562 C39.71491006 257.2258906 35.21519797 262.08813306 30.73046875 266.96484375 C25.19084601 272.98281832 25.19084601 272.98281832 22.47802734 273.22705078 C21.4411377 273.21657715 20.40424805 273.20610352 19.3359375 273.1953125 C18.21445312 273.18886719 17.09296875 273.18242187 15.9375 273.17578125 C14.761875 273.15902344 13.58625 273.14226562 12.375 273.125 C11.19164062 273.11597656 10.00828125 273.10695313 8.7890625 273.09765625 C5.85917477 273.07402812 2.9296866 273.04108514 0 273 C2.42613298 268.77204115 5.25151819 265.54779829 8.75 262.1875 C12.71236536 258.30483061 16.51663373 254.38518917 20.12109375 250.1640625 C29.66659962 239.1698624 39.86265553 228.70020862 49.80712891 218.06787109 C57.58386914 209.75291904 65.3223979 201.40663256 73 193 C79.55233678 185.82548288 86.14362398 178.69113786 92.78149414 171.59570312 C97.5197162 166.52657218 102.21416995 161.41908294 106.890625 156.29296875 C108.23176881 154.83509575 109.59927512 153.40072488 111 152 C110.66137879 148.52741894 109.00057026 146.38176291 106.89453125 143.68359375 C105.92483398 142.42869141 105.92483398 142.42869141 104.93554688 141.1484375 C104.23494141 140.25382813 103.53433594 139.35921875 102.8125 138.4375 C101.33854225 136.5309534 99.86591038 134.6233811 98.39453125 132.71484375 C97.65283691 131.75433105 96.91114258 130.79381836 96.14697266 129.80419922 C93.03934218 125.74526771 90.01535993 121.62768687 87 117.5 C82.07528255 110.77436371 77.06649906 104.11944897 72 97.5 C66.34709535 90.11440426 60.78566162 82.67032996 55.29125977 75.16625977 C50.91217394 69.20041389 46.43922739 63.31118241 41.9375 57.4375 C36.48442703 50.31936659 31.16104296 43.12776813 25.95092773 35.83032227 C20.94615349 28.85155031 15.73019131 22.03918514 10.46679688 15.25390625 C9.82806641 14.42503906 9.18933594 13.59617188 8.53125 12.7421875 C7.96986328 12.0188623 7.40847656 11.29553711 6.83007812 10.55029297 C4.38139453 7.13794655 2.1927171 3.58052234 0 0 Z " fill="#FBFBFB" transform="translate(288,188)"/>
<path d="M0 0 C34.38373826 -3.00523119 34.38373826 -3.00523119 43.12353516 1.67138672 C47.70924166 5.87135269 50.39011923 11.007615 52.89697266 16.63720703 C54.42232079 19.90465264 56.36313587 22.38060837 58.625 25.1875 C59.32496094 26.11820313 60.02492188 27.04890625 60.74609375 28.0078125 C61.48988281 28.99523437 62.23367188 29.98265625 63 31 C69.29632663 39.36241824 75.55782337 47.74759208 81.75 56.1875 C87.423254 63.91558374 93.21139012 71.5500278 99.03808594 79.1628418 C104.00177272 85.6595727 108.86733875 92.22221007 113.69775391 98.81835938 C118.85905553 105.84888916 124.1466627 112.77967508 129.44555664 119.70678711 C133.44824122 124.94522621 137.38898968 130.21413749 141.23828125 135.56640625 C143.16996597 138.23478669 145.1432981 140.86855978 147.125 143.5 C150.3835719 147.82805191 153.60593798 152.18033064 156.81005859 156.54882812 C163.12687461 165.15898805 169.54692702 173.68192274 176.03735352 182.16186523 C180.99750023 188.65400663 185.86411707 195.20883962 190.68457031 201.80517578 C193.85940206 206.13672213 197.08098671 210.42582785 200.359375 214.6796875 C201.09027344 215.62908203 201.82117188 216.57847656 202.57421875 217.55664062 C203.99360588 219.39521839 205.41786839 221.23004566 206.84765625 223.06054688 C207.81251953 224.31061523 207.81251953 224.31061523 208.796875 225.5859375 C209.65297363 226.68494385 209.65297363 226.68494385 210.52636719 227.80615234 C212.08212294 230.12225923 213.05810168 232.38074063 214 235 C180.79392126 237.82471369 180.79392126 237.82471369 172.00439453 233.53955078 C167.49478779 229.72052408 164.91730829 224.84956508 162.35595703 219.59619141 C160.03748468 215.15711417 156.92052641 211.33308634 153.875 207.375 C152.70151947 205.78173782 151.53218496 204.18541299 150.3671875 202.5859375 C147.27629511 198.36659609 144.14646324 194.17799606 141 190 C136.70906091 184.3003617 132.46975997 178.5649979 128.25 172.8125 C122.57681778 165.08436511 116.78860854 157.44997046 110.96191406 149.8371582 C105.99377647 143.33460185 101.12437737 136.76570244 96.2890625 130.1640625 C91.92722968 124.22328567 87.47945452 118.3524674 83 112.5 C77.34932439 105.11731654 71.78976064 97.67640427 66.29785156 90.17504883 C61.85518898 84.12220487 57.31621363 78.14752041 52.75 72.1875 C48.00430122 65.99122915 43.34541901 59.75935893 38.85742188 53.37451172 C34.46431905 47.16663042 29.81192462 41.15741189 25.18823242 35.12060547 C20.50483972 28.99740278 15.88113197 22.83429752 11.3125 16.625 C10.74885742 15.85905518 10.18521484 15.09311035 9.60449219 14.30395508 C8.064943 12.20602861 6.53100066 10.10417062 5 8 C4.50419434 7.32163086 4.00838867 6.64326172 3.49755859 5.94433594 C0 1.11817126 0 1.11817126 0 0 Z " fill="#020202" transform="translate(326,207)"/>
<path d="M0 0 C0.66 0.33 1.32 0.66 2 1 C0.5993784 4.501554 -0.62264089 5.46483677 -4 7 C-5.70921589 8.5412312 -5.70921589 8.5412312 -7 10 C-7.66 9.67 -8.32 9.34 -9 9 C-6.03 6.03 -3.06 3.06 0 0 Z " fill="#E1E1E1" transform="translate(511,219)"/>
</svg>
