<svg width="41" height="41" viewBox="0 0 41 41" fill="none" xmlns="http://www.w3.org/2000/svg">
<path fill-rule="evenodd" clip-rule="evenodd" d="M11.1224 0.437155C3.98164 1.68366 0.311451 6.62349 0.311451 15.0951C0.286483 23.7744 9.74915 29.1067 19.4865 25.8981L21.2842 25.2979C22.7573 26.7291 23.007 26.7291 21.4341 27.6063C20.1857 28.2988 20.3104 29.0144 21.1094 29.2914C22.183 29.6607 28.6997 35.4546 29.5735 36.8627C32.7943 42.0564 40.8339 40.2329 40.2846 36.1702C40.0349 34.3235 38.5118 32.1768 36.7142 30.6533C34.7168 28.9451 33.5932 27.5601 32.1201 24.9748C30.697 22.4587 29.4237 21.9047 27.5761 22.9434C26.7772 23.382 26.7022 23.4051 26.2778 23.0358C25.4039 22.3202 25.4538 21.8354 26.5274 20.335C30.6221 14.518 30.8468 9.43966 27.2265 5.40008C22.183 -0.232263 17.8637 1.79907 20.8099 3.55341C27.9756 7.80075 27.6011 16.4339 19.961 22.9434C15.7165 26.5675 7.17759 24.6285 4.98044 19.5502C1.50994 11.471 7.22743 0.806488 16.4904 2.51466C19.6863 3.27641 20.9596 -1.27101 11.1224 0.437155ZM10.1237 6.18492C9.05006 7.01592 9.74915 7.73149 11.7466 6.46191C13.1447 5.58474 13.819 5.42316 15.0923 5.70016C16.7651 6.04641 17.7887 5.654 17.2644 4.86916C17.0897 4.59216 13.4194 3.62266 10.1237 6.18492ZM20.1357 5.88482C18.7874 5.81557 18.4379 6.50808 19.3617 7.40833C20.5102 8.53942 22.8073 8.72409 22.6824 7.68533C22.6075 6.96975 21.1594 5.93099 20.1357 5.88482ZM28.8245 25.2287C29.0242 25.9904 30.9967 28.6681 32.0453 29.6607C33.3186 30.8379 33.8679 31.6228 35.5158 33.2848C38.8614 36.678 34.8666 40.0482 31.7206 35.8009C27.7508 30.4455 24.0556 28.7604 24.1055 28.1372C24.1804 27.3524 28.6497 24.5824 28.8245 25.2287Z" fill="#9500DB"/>
</svg>
